@startuml
'scale 0.9

skinparam packageStyle rectangle
skinparam stereotypeCBackgroundColor #80ffff
set namespaceSeparator ::
hide members


class Gnome::N::TopLevelClassSupport < Catch all class >
Gnome::N::TopLevelClassSupport <|-- Gnome::GObject::Object

Interface Gnome::GObject::Signal <Interface>
class Gnome::GObject::Signal <<(R,#80ffff)>>

Gnome::GObject::Signal <|. Gnome::GObject::Object
Gnome::GObject::Object <|-- Gnome::Gtk3::IconTheme
Gnome::GObject::Object <|-- Gnome::Gtk3::IconInfo

@enduml
